<?xml version="1.0" standalone="no"?><!DOCTYPE svg PUBLIC "-//W3C//DTD SVG 1.1//EN" "http://www.w3.org/Graphics/SVG/1.1/DTD/svg11.dtd"><svg t="1724587470563" class="icon" viewBox="0 0 1024 1024" version="1.1" xmlns="http://www.w3.org/2000/svg" p-id="6756" xmlns:xlink="http://www.w3.org/1999/xlink" width="32" height="32"><path d="M597.333333 0h-170.666666c-23.893333 0-42.666667 18.773333-42.666667 42.666667S402.773333 85.333333 426.666667 85.333333h170.666666c23.893333 0 42.666667-18.773333 42.666667-42.666666S621.226667 0 597.333333 0z m-341.333333 0h-119.466667C61.44 0 0 61.44 0 136.533333v119.466667c0 23.893333 18.773333 42.666667 42.666667 42.666667S85.333333 279.893333 85.333333 256v-119.466667c0-28.16 23.04-51.2 51.2-51.2h119.466667c23.893333 0 42.666667-18.773333 42.666667-42.666666S279.893333 0 256 0zM42.666667 640c23.893333 0 42.666667-18.773333 42.666666-42.666667v-170.666666c0-23.893333-18.773333-42.666667-42.666666-42.666667S0 402.773333 0 426.666667v170.666666c0 23.893333 18.773333 42.666667 42.666667 42.666667zM256 938.666667h-119.466667a51.34441 51.34441 0 0 1-51.2-51.2v-119.466667c0-23.893333-18.773333-42.666667-42.666666-42.666667S0 744.106667 0 768v119.466667C0 962.56 61.44 1024 136.533333 1024h119.466667c23.893333 0 42.666667-18.773333 42.666667-42.666667s-18.773333-42.666667-42.666667-42.666666z m341.333333 0h-170.666666c-23.893333 0-42.666667 18.773333-42.666667 42.666666S402.773333 1024 426.666667 1024h170.666666c23.893333 0 42.666667-18.773333 42.666667-42.666667s-18.773333-42.666667-42.666667-42.666666z m384-213.333334c-23.893333 0-42.666667 18.773333-42.666666 42.666667v119.466667c0 28.16-23.04 51.2-51.2 51.2h-119.466667c-23.893333 0-42.666667 18.773333-42.666667 42.666666S744.106667 1024 768 1024h119.466667C962.56 1024 1024 962.56 1024 887.466667v-119.466667c0-23.893333-18.773333-42.666667-42.666667-42.666667z m0-341.333333c-23.893333 0-42.666667 18.773333-42.666666 42.666667v170.666666c0 23.893333 18.773333 42.666667 42.666666 42.666667S1024 621.226667 1024 597.333333v-170.666666c0-23.893333-18.773333-42.666667-42.666667-42.666667zM887.466667 0h-119.466667c-23.893333 0-42.666667 18.773333-42.666667 42.666667S744.106667 85.333333 768 85.333333h119.466667c28.16 0 51.2 23.04 51.2 51.2v119.466667c0 23.893333 18.773333 42.666667 42.666666 42.666667S1024 279.893333 1024 256v-119.466667C1024 61.44 962.56 0 887.466667 0z" fill="#9AA1A5" p-id="6757"></path></svg>